HIERARCHY
ROOT Hips
{
	OFFSET 0.000000  0.463670  0.080341
	CHANNELS 6 Xposition Yposition Zposition Zrotation Yrotation Xrotation 
	JOINT LHipJoint
	{
		OFFSET 0 0 0
		CHANNELS 3 Zrotation Yrotation Xrotation
		JOINT LeftUpLeg
		{
			OFFSET 0.949434 -0.248378 0.086503
			CHANNELS 3 Zrotation Yrotation Xrotation
			JOINT LeftLeg
			{
				OFFSET -0.076513 -3.879421 -0.177038
				CHANNELS 3 Zrotation Yrotation Xrotation
				JOINT LeftFoot
				{
					OFFSET -0.188964 -3.680973 -0.122632
					CHANNELS 3 Zrotation Yrotation Xrotation
					JOINT LeftToeBase
					{
						OFFSET 0.055451 -0.524480 1.120382
						CHANNELS 3 Zrotation Yrotation Xrotation
						End Site
						{
							OFFSET 0.007944 -0.006006 0.139660
						}
					}
				}
			}
		}
	}
	JOINT RHipJoint
	{
		OFFSET 0 0 0
		CHANNELS 3 Zrotation Yrotation Xrotation
		JOINT RightUpLeg
		{
			OFFSET -0.949434 -0.248378 0.086503
			CHANNELS 3 Zrotation Yrotation Xrotation
			JOINT RightLeg
			{
				OFFSET 0.076513 -3.879421 -0.177038
				CHANNELS 3 Zrotation Yrotation Xrotation
				JOINT RightFoot
				{
					OFFSET 0.188964 -3.680973 -0.122632
					CHANNELS 3 Zrotation Yrotation Xrotation
					JOINT RightToeBase
					{
						OFFSET -0.055451 -0.524480 1.120382
						CHANNELS 3 Zrotation Yrotation Xrotation
						End Site
						{
							OFFSET -0.007944 -0.006006 0.139660
						}
					}
				}
			}
		}
	}
	JOINT LowerBack
	{
		OFFSET 0 0 0
		CHANNELS 3 Zrotation Yrotation Xrotation
		JOINT Spine
		{
			OFFSET 0.000000 0.677144 0.028277
			CHANNELS 3 Zrotation Yrotation Xrotation
			JOINT Spine1
			{
				OFFSET 0.000000 2.156116 -0.508617
				CHANNELS 3 Zrotation Yrotation Xrotation
				JOINT Neck
				{
					OFFSET 0 0 0
					CHANNELS 3 Zrotation Yrotation Xrotation
					JOINT Neck1
					{
						OFFSET 0.000000 1.781871 0.216275
						CHANNELS 3 Zrotation Yrotation Xrotation
						JOINT Head
						{
							OFFSET 0.000000 1.015906 -0.026879
							CHANNELS 3 Zrotation Yrotation Xrotation
							End Site
							{
								OFFSET 0.000000 0.339197 0.983632
							}
						}
					}
				}
				JOINT LeftShoulder
				{
					OFFSET 0 0 0
					CHANNELS 3 Zrotation Yrotation Xrotation
					JOINT LeftArm
					{
						OFFSET 1.565866 1.184736 0.289545
						CHANNELS 3 Zrotation Yrotation Xrotation
						JOINT LeftForeArm
						{
							OFFSET 1.930940 -0.176441 -0.109244
							CHANNELS 3 Zrotation Yrotation Xrotation
							JOINT LeftHand
							{
								OFFSET 2.263412 -0.058986 0.122483
								CHANNELS 3 Zrotation Yrotation Xrotation
								JOINT LeftFingerBase
								{
									OFFSET 0 0 0
									CHANNELS 3 Zrotation Yrotation Xrotation
									JOINT LeftHandIndex1
									{
										OFFSET 0.944218 0.017559 0.358417
										CHANNELS 3 Zrotation Yrotation Xrotation
										End Site
										{
											OFFSET 0.237801 -0.022714 0.035813
										}
									}
								}
								JOINT LThumb
								{
									OFFSET 0 0 0
									CHANNELS 3 Zrotation Yrotation Xrotation
									End Site
									{
										OFFSET 0.234930 -0.092931 0.244282
									}
								}
							}
						}
					}
				}
				JOINT RightShoulder
				{
					OFFSET 0 0 0
					CHANNELS 3 Zrotation Yrotation Xrotation
					JOINT RightArm
					{
						OFFSET -1.565866 1.184736 0.289545
						CHANNELS 3 Zrotation Yrotation Xrotation
						JOINT RightForeArm
						{
							OFFSET -1.930940 -0.176441 -0.109244
							CHANNELS 3 Zrotation Yrotation Xrotation
							JOINT RightHand
							{
								OFFSET -2.263412 -0.058986 0.122483
								CHANNELS 3 Zrotation Yrotation Xrotation
								JOINT RightFingerBase
								{
									OFFSET 0 0 0
									CHANNELS 3 Zrotation Yrotation Xrotation
									JOINT RightHandIndex1
									{
										OFFSET -0.944218 0.017559 0.358417
										CHANNELS 3 Zrotation Yrotation Xrotation
										End Site
										{
											OFFSET -0.237801 -0.022714 0.035813
										}
									}
								}
								JOINT RThumb
								{
									OFFSET 0 0 0
									CHANNELS 3 Zrotation Yrotation Xrotation
									End Site
									{
										OFFSET -0.234930 -0.092931 0.244282
									}
								}
							}
						}
					}
				}
			}
		}
	}
}
MOTION
Frames: 10
Frame Time: .0083333
2.464420 9.150055 -8.592321 -3.962900 6.816000 27.851900 0.000000 0.000000 0.000000 -6.097401 12.914200 -27.836399 4.878800 13.246000 40.296501 0.246700 41.271099 30.488899 0.034100 1.191400 3.275700 0.000000 0.000000 0.000000 8.169399 17.542000 -40.345501 -2.620400 -10.053600 29.150400 -1.044800 -20.765100 -35.795300 -0.985300 -6.318200 17.710600 5.156800 0.098700 -15.442500 4.304200 -0.486800 -9.707600 1.554400 -0.335800 -1.681600 -0.553500 -3.303800 4.098700 0.091300 -5.052500 19.908699 -0.719900 -2.130500 5.837700 0.000000 -0.000000 0.000000 -79.476196 24.131300 38.670200 15.900400 -25.385401 -3.603100 -0.000000 0.000000 -2.603300 0.972400 15.861000 0.265800 -7.125000 0.000000 -0.000000 -24.402399 44.353802 0.415100 0.000000 -0.000000 0.000000 75.929703 -12.453500 4.929800 -2.502200 4.324300 -0.094500 0.000000 0.000000 8.262800 -25.414801 21.666500 -9.950000 7.125000 -0.000000 -0.000000 2.101100 -6.251600 1.861100
2.463702 9.153370 -8.594310 -3.894600 6.917300 27.823400 0.000000 0.000000 0.000000 -6.132500 12.921700 -27.796700 4.871900 13.238100 40.266499 1.959200 37.663700 34.735802 0.129000 -2.314800 -6.376600 0.000000 0.000000 0.000000 8.080099 17.500900 -40.458401 -2.632500 -10.074900 29.219801 -0.930700 -21.229401 -35.679699 -0.862300 -5.921300 16.556200 5.091000 0.006100 -15.403900 4.341600 -0.595500 -9.742000 1.616500 -0.387800 -1.738000 -0.605500 -3.280900 4.168600 0.098000 -5.008600 19.980701 -0.699700 -2.119500 5.862000 -0.000000 0.000000 0.000000 -79.499397 24.050100 39.158001 15.742100 -25.169701 -3.535600 -0.000000 0.000000 -2.896400 1.504500 15.247500 0.395700 -7.125000 0.000000 -0.000000 -23.700300 43.853802 0.712900 -0.000000 0.000000 0.000000 76.090401 -12.679600 4.987900 -2.977300 5.140700 -0.133700 0.000000 0.000000 9.340300 -23.372299 20.616501 -8.652300 7.125000 -0.000000 -0.000000 3.285100 -7.724600 2.818500
2.478011 9.150166 -8.572376 -4.378200 6.241500 26.637100 0.000000 0.000000 0.000000 -5.840900 14.356800 -26.562901 4.819500 13.177700 40.037201 -2.421800 44.990501 23.413099 0.694100 5.325700 14.840000 0.000000 0.000000 0.000000 9.209000 16.042200 -39.234100 -2.630500 -10.071400 29.208401 -0.986500 -20.051001 -34.703701 -0.747700 -5.523200 15.406900 5.645200 0.295600 -14.809000 4.356400 -0.265700 -9.272400 1.361000 -0.240200 -1.552800 -0.473300 -3.259600 4.105000 -0.100200 -4.938300 20.068100 -0.802900 -2.095200 5.912399 0.000000 -0.000000 0.000000 -79.448997 23.931200 39.868099 15.637800 -25.027100 -3.491300 -0.000000 0.000000 -3.084500 1.715200 15.226900 0.450600 -7.125000 0.000000 -0.000000 -23.511600 43.858200 0.703800 0.000000 -0.000000 0.000000 76.144798 -12.730200 5.004700 -3.335800 5.755000 -0.167700 0.000000 0.000000 10.962200 -21.248100 19.879801 -7.532200 7.125000 -0.000000 -0.000000 4.583000 -8.830000 3.837800
2.465635 9.154807 -8.599006 -4.123700 7.322800 27.483500 0.000000 0.000000 0.000000 -5.666201 12.919300 -27.349100 4.874000 13.240500 40.275501 -4.464100 47.340302 18.054501 1.520900 7.787300 22.069799 0.000000 0.000000 0.000000 8.623100 16.882401 -40.209900 -2.622100 -10.056700 29.160400 -1.076700 -20.636700 -35.830799 -0.948900 -6.203600 17.376200 5.419100 -0.099100 -15.172600 4.498100 -0.761400 -9.642400 1.575700 -0.480800 -1.760400 -0.455500 -3.270900 4.092900 -0.183200 -4.929000 20.092201 -0.842400 -2.099700 5.924400 -0.000000 -0.000000 0.000000 -79.444000 23.847700 40.335701 15.670100 -25.071301 -3.505000 -0.000000 0.000000 -3.047600 1.367600 15.782100 0.372000 -7.125000 0.000000 -0.000000 -24.030701 44.327000 0.424800 -0.000000 -0.000000 0.000000 76.073601 -12.930000 5.043100 -3.867800 6.663900 -0.225300 0.000000 0.000000 12.808000 -18.642000 19.705700 -6.489600 7.125000 -0.000000 -0.000000 6.251600 -9.372100 5.181900
2.476354 9.150055 -8.581215 -4.553400 6.747300 26.348200 0.000000 0.000000 0.000000 -5.341200 14.135200 -26.286501 4.886900 13.255300 40.331699 -4.958300 47.383301 16.097799 1.792500 8.419800 23.996500 0.000000 0.000000 0.000000 9.595501 15.713000 -38.960400 -2.594400 -10.007600 29.001200 -1.069500 -19.902800 -35.011600 -0.908600 -6.074100 16.999399 5.847800 0.119300 -14.599000 4.539000 -0.508900 -9.188900 1.408000 -0.365500 -1.581400 -0.559600 -3.323300 4.051900 -0.136600 -5.003900 20.173100 -0.818900 -2.138700 5.986601 -0.000000 0.000000 0.000000 -79.504402 23.728800 40.520000 15.671700 -25.073400 -3.505700 -0.000000 0.000000 -2.920800 1.233900 15.995800 0.340100 -7.125000 0.000000 -0.000000 -24.232500 44.506599 0.314400 -0.000000 0.000000 0.000000 75.909401 -13.044400 5.128300 -4.272000 7.351800 -0.274600 0.000000 0.000000 14.926900 -16.478600 20.174601 -5.825100 7.125000 -0.000000 -0.000000 7.669700 -9.165300 6.409400
2.464696 9.149503 -8.606354 -4.357500 7.413800 27.439199 0.000000 0.000000 0.000000 -5.422701 12.839100 -27.528700 4.949100 13.326200 40.602299 -5.771700 48.355000 14.148000 2.103900 9.079200 26.043400 0.000000 0.000000 0.000000 9.014601 16.710400 -40.168301 -2.586800 -9.994000 28.957300 -1.115000 -20.385799 -35.772701 -1.104800 -6.678500 18.766300 5.558000 -0.126900 -15.088100 4.656600 -0.804900 -9.679200 1.661300 -0.505900 -1.847500 -0.576400 -3.377100 4.087700 -0.190000 -5.065700 20.243500 -0.851100 -2.173500 6.015301 0.000000 -0.000000 0.000000 -79.541397 23.799900 40.749298 15.758500 -25.192101 -3.542500 -0.000000 0.000000 -2.697800 1.125100 15.991800 0.310000 -7.125000 0.000000 -0.000000 -24.324400 44.490398 0.326100 0.000000 -0.000000 0.000000 75.632103 -13.210500 5.233800 -4.607200 7.920500 -0.319100 0.000000 0.000000 17.286699 -14.285000 20.746000 -5.153700 7.125000 -0.000000 -0.000000 9.097300 -8.846700 7.690200
2.464917 9.141271 -8.610995 -4.382200 7.397400 27.302401 0.000000 0.000000 0.000000 -5.419300 12.879700 -27.364201 4.935200 13.310400 40.542000 -4.942900 49.077400 18.480700 1.220400 7.007100 19.736300 0.000000 0.000000 0.000000 9.247299 16.384501 -39.896301 -2.576100 -9.974900 28.895500 -1.415100 -19.150999 -36.132900 -1.348500 -7.351600 20.761400 5.540700 -0.168600 -14.894000 4.701600 -0.834200 -9.772000 1.717900 -0.522700 -2.049400 -0.470300 -3.364800 4.524900 -0.327300 -5.019100 20.168800 -0.909600 -2.163600 5.850901 -0.000000 -0.000000 0.000000 -79.505501 24.047600 41.225498 15.838400 -25.301100 -3.576600 -0.000000 0.000000 -2.606000 0.886900 16.153900 0.246800 -7.125000 0.000000 -0.000000 -24.596300 44.610401 0.252400 -0.000000 -0.000000 0.000000 75.235001 -13.657300 5.436500 -5.085200 8.728100 -0.388300 0.000000 0.000000 19.526199 -11.479300 21.160900 -4.192800 7.125000 -0.000000 -0.000000 10.890900 -8.737100 9.284000
2.474475 9.145470 -8.591436 -4.669300 6.662600 26.470900 0.000000 0.000000 0.000000 -5.393200 14.108400 -26.567699 4.902400 13.273100 40.399502 -6.291400 48.406300 12.024200 2.354500 9.568500 27.590401 0.000000 0.000000 0.000000 9.717199 15.798700 -39.102600 -2.581900 -9.985300 28.929100 -1.056700 -19.759899 -34.788700 -0.950200 -6.207800 17.388399 5.719500 0.033800 -14.561600 4.730700 -0.584800 -9.452500 1.676400 -0.400500 -1.882200 -0.438700 -3.319600 4.811500 -0.354700 -4.944600 20.077202 -0.905000 -2.137100 5.724701 -0.000000 0.000000 0.000000 -79.476501 24.057600 41.949902 15.773400 -25.212400 -3.548900 -0.000000 0.000000 -2.770900 0.846800 16.537300 0.241100 -7.125000 0.000000 -0.000000 -24.791300 44.953899 0.030100 -0.000000 0.000000 0.000000 74.615997 -14.126000 12.770000 -5.678000 9.724100 -0.483400 0.000000 0.000000 14.730900 -10.080200 20.814501 -3.614600 7.125000 -0.000000 -0.000000 11.771400 -9.218900 9.951500
2.478453 9.147624 -8.585967 -4.721700 6.300100 26.150600 0.000000 0.000000 0.000000 -5.523001 14.638100 -26.305201 4.870200 13.236100 40.258900 -2.705300 46.544601 23.943701 0.542100 4.717300 13.104100 0.000000 0.000000 0.000000 9.714399 15.787100 -38.722099 -2.585400 -9.991600 28.949400 -1.038000 -19.673500 -34.591202 -0.946500 -6.196100 17.354601 5.679900 0.055100 -14.438700 4.796100 -0.563000 -9.193400 1.766300 -0.381300 -1.666800 -0.421000 -3.274700 4.483000 -0.436300 -4.853400 20.108799 -0.939200 -2.105200 5.821301 -0.000000 -0.000000 0.000000 -79.554001 23.673401 42.492298 15.596300 -24.970200 -3.473800 -0.000000 0.000000 -2.859800 0.870300 16.613899 0.248900 -7.125000 0.000000 -0.000000 -24.803400 45.026100 -0.017100 -0.000000 -0.000000 0.000000 73.768402 -14.194200 19.094601 -6.456500 11.021300 -0.623600 0.000000 0.000000 11.644100 -8.269900 19.849501 -2.825400 7.125000 -0.000000 -0.000000 12.920400 -10.329000 10.676700
2.478840 9.147735 -8.588950 -4.666000 6.175300 26.146099 0.000000 0.000000 0.000000 -5.694700 14.700600 -26.427000 4.874300 13.240800 40.276798 -3.429500 45.992199 20.529301 0.963000 6.248300 17.506701 0.000000 0.000000 0.000000 9.577400 15.921000 -38.730099 -2.599000 -10.015700 29.027500 -1.013100 -19.770500 -34.553398 -0.941400 -6.179700 17.306601 5.575200 0.131500 -14.469300 4.677700 -0.443500 -9.309400 1.716600 -0.322400 -1.772400 -0.239700 -3.367800 5.046300 -0.415100 -5.053400 20.039299 -0.978000 -2.163500 5.634001 0.000000 -0.000000 0.000000 -79.145699 23.865299 43.401501 15.561200 -24.922001 -3.459000 -0.000000 0.000000 -2.724600 0.525700 16.792000 0.151900 -7.125000 0.000000 -0.000000 -25.177200 45.146500 -0.097300 0.000000 -0.000000 0.000000 73.192703 -14.820600 23.733999 -7.290200 12.395800 -0.792800 0.000000 0.000000 9.334500 -6.323700 19.156300 -2.082700 7.125000 -0.000000 -0.000000 14.172000 -11.154700 11.530100
